HIERARCHY
ROOT Hips
{
	OFFSET -0.001795 -0.223333 0.028219
	CHANNELS 6 Xposition Yposition Zposition Zrotation Yrotation Xrotation 
	JOINT LeftUpLeg
	{
		OFFSET 0.069520 -0.091406 -0.006815
		CHANNELS 3 Zrotation Yrotation Xrotation
		JOINT LeftLeg
		{
			OFFSET 0.034277 -0.375199 -0.004496
			CHANNELS 3 Zrotation Yrotation Xrotation
			JOINT LeftFoot
			{
				OFFSET -0.013596 -0.397961 -0.043693
				CHANNELS 3 Zrotation Yrotation Xrotation
				JOINT LeftToe
				{
					OFFSET 0.026358 -0.055791 0.119288
					CHANNELS 3 Zrotation Yrotation Xrotation
					End Site
					{
						OFFSET 0.000000 0.000000 0.000000
					}
				}
			}
		}
	}
	JOINT RightUpLeg
	{
		OFFSET -0.067670 -0.090522 -0.004320
		CHANNELS 3 Zrotation Yrotation Xrotation
		JOINT RightLeg
		{
			OFFSET -0.038290 -0.382569 -0.008850
			CHANNELS 3 Zrotation Yrotation Xrotation
			JOINT RightFoot
			{
				OFFSET 0.015774 -0.398415 -0.042312
				CHANNELS 3 Zrotation Yrotation Xrotation
				JOINT RightToe
				{
					OFFSET -0.025372 -0.048144 0.123348
					CHANNELS 3 Zrotation Yrotation Xrotation
					End Site
					{
						OFFSET 0.000000 0.000000 0.000000
					}
				}
			}
		}
	}
	JOINT Spine
	{
		OFFSET -0.002533 0.108963 -0.026696
		CHANNELS 3 Zrotation Yrotation Xrotation
		JOINT Spine1
		{
			OFFSET 0.005487 0.135180 0.001092
			CHANNELS 3 Zrotation Yrotation Xrotation
			JOINT Spine2
			{
				OFFSET 0.001457 0.052922 0.025425
				CHANNELS 3 Zrotation Yrotation Xrotation
				JOINT Neck
				{
					OFFSET -0.002778 0.213870 -0.042857
					CHANNELS 3 Zrotation Yrotation Xrotation
					JOINT Head
					{
						OFFSET 0.005152 0.064970 0.051349
						CHANNELS 3 Zrotation Yrotation Xrotation
						End Site
						{
							OFFSET 0.000000 0.000000 0.000000
						}
					}
				}
				JOINT LeftShoulder
				{
					OFFSET 0.078845 0.121749 -0.034090
					CHANNELS 3 Zrotation Yrotation Xrotation
					JOINT LeftArm
					{
						OFFSET 0.090977 0.030469 -0.008868
						CHANNELS 3 Zrotation Yrotation Xrotation
						JOINT LeftForeArm
						{
							OFFSET 0.259612 -0.012772 -0.027456
							CHANNELS 3 Zrotation Yrotation Xrotation
							JOINT LeftHand
							{
								OFFSET 0.249234 0.008986 -0.001171
								CHANNELS 3 Zrotation Yrotation Xrotation
								End Site
								{
									OFFSET 0.000000 0.000000 0.000000
								}
							}
						}
					}
				}
				JOINT RightShoulder
				{
					OFFSET -0.081759 0.118833 -0.038615
					CHANNELS 3 Zrotation Yrotation Xrotation
					JOINT RightArm
					{
						OFFSET -0.096012 0.032551 -0.009143
						CHANNELS 3 Zrotation Yrotation Xrotation
						JOINT RightForeArm
						{
							OFFSET -0.253742 -0.013329 -0.021401
							CHANNELS 3 Zrotation Yrotation Xrotation
							JOINT RightHand
							{
								OFFSET -0.255298 0.007772 -0.005559
								CHANNELS 3 Zrotation Yrotation Xrotation
								End Site
								{
									OFFSET 0.000000 0.000000 0.000000
								}
							}
						}
					}
				}
			}
		}
	}
}
MOTION
Frames: 18
Frame Time: 0.050000
0.018394 0.932609 -0.028855 -1.294548 -10.607187 -0.709086 3.620652 0.108382 0.862202 -4.869676 0.660475 -0.155509 7.947560 16.766376 5.829637 0.000000 0.000000 0.000000 -2.145603 0.089023 0.023548 3.709850 -0.297634 0.249958 -5.227531 -14.638299 7.497560 0.000000 0.000000 0.000000 -6.159789 0.146743 4.048132 7.411542 -1.895605 -18.538196 4.029933 2.759083 27.797113 1.434719 -0.070763 -22.647255 0.000000 0.000000 0.000000 -24.934054 0.413834 -0.386355 -48.074649 -7.211236 -5.563451 -28.050045 -52.436073 18.368521 0.000000 0.000000 0.000000 9.021740 16.769354 6.242928 59.041591 50.085730 18.513976 -175.031857 47.005209 -155.700198 0.000000 0.000000 0.000000 
0.018612 0.932598 -0.029157 -1.373956 -10.988887 -0.616586 3.683507 0.098656 0.666507 -4.897074 0.672421 0.082310 8.139924 17.111136 5.868284 0.000000 0.000000 0.000000 -2.080399 0.100088 -0.143516 3.687583 -0.291960 0.282124 -5.060716 -14.332771 7.469846 0.000000 0.000000 0.000000 -6.194799 0.144773 3.637648 7.372077 -1.915480 -18.279411 4.032721 2.845907 27.861154 1.560722 -0.193131 -22.327004 0.000000 0.000000 0.000000 -24.949800 0.719809 -0.530715 -48.041099 -7.617270 -5.421517 -28.515613 -53.288122 19.022591 0.000000 0.000000 0.000000 9.119626 16.738370 6.215183 58.969137 50.226147 18.539371 -174.453933 47.179142 -154.583818 0.000000 0.000000 0.000000 
0.018890 0.932629 -0.029291 -1.431876 -11.354226 -0.641788 3.829800 0.092826 0.489231 -5.116650 0.716796 0.527215 8.311917 17.419638 5.883973 0.000000 0.000000 0.000000 -2.031097 0.109055 -0.277940 3.642145 -0.282685 0.506187 -4.911052 -14.047962 7.404832 0.000000 0.000000 0.000000 -6.202994 0.143775 3.489797 7.352205 -1.920907 -18.230387 4.045109 3.036273 27.998655 1.660447 -0.284367 -21.949785 0.000000 0.000000 0.000000 -24.909794 0.896249 -0.620422 -47.790087 -7.815453 -5.347641 -29.300418 -54.012363 19.783219 0.000000 0.000000 0.000000 9.031269 16.690576 6.184061 59.262191 50.427961 18.774078 -174.322710 47.444562 -154.404980 0.000000 0.000000 0.000000 
0.019240 0.932649 -0.029186 -1.423380 -11.678011 -0.569079 3.861550 0.080713 0.256747 -5.273169 0.751612 0.866966 8.471026 17.701738 5.932766 0.000000 0.000000 0.000000 -2.026711 0.118490 -0.388792 3.539572 -0.271404 0.501605 -4.774530 -13.792030 7.366078 0.000000 0.000000 0.000000 -6.199249 0.136988 2.934484 7.304951 -1.947369 -17.870211 3.961687 3.056738 27.995642 1.716540 -0.397921 -21.183837 0.000000 0.000000 0.000000 -24.806496 1.159596 -0.722709 -47.818461 -8.159501 -5.229650 -29.249055 -54.286904 19.929691 0.000000 0.000000 0.000000 8.983291 16.698138 6.157624 59.511542 50.574265 18.948567 -174.259957 47.603896 -154.487367 0.000000 0.000000 0.000000 
0.019634 0.932505 -0.028949 -1.438718 -12.023085 -0.593608 3.938908 0.081006 0.179771 -5.474580 0.794503 1.152365 8.629851 17.991172 5.913237 0.000000 0.000000 0.000000 -2.039813 0.118216 -0.360922 3.503241 -0.266012 0.460880 -4.628934 -13.504325 7.282183 0.000000 0.000000 0.000000 -6.230267 0.134694 2.632901 7.289052 -1.948079 -17.868403 3.999599 3.111072 28.177307 1.749818 -0.471365 -20.805631 0.000000 0.000000 0.000000 -24.563504 1.314043 -0.745613 -47.728013 -8.152066 -5.252291 -29.155112 -54.313796 19.940847 0.000000 0.000000 0.000000 8.596665 16.725437 6.121805 59.872728 51.119710 19.401539 -173.555650 48.082956 -153.244559 0.000000 0.000000 0.000000 
0.020042 0.932346 -0.028813 -1.456825 -12.164192 -0.652270 4.019789 0.086808 0.212197 -5.650331 0.827109 1.255766 8.685949 18.098644 5.855402 0.000000 0.000000 0.000000 -2.087506 0.118607 -0.332693 3.557401 -0.268392 0.514593 -4.574921 -13.387077 7.216892 0.000000 0.000000 0.000000 -6.307330 0.134633 2.444513 7.304604 -1.975626 -17.661064 4.030220 3.094105 28.119498 1.817608 -0.572751 -20.168082 0.000000 0.000000 0.000000 -24.393693 1.506832 -0.828355 -47.735226 -8.217786 -5.223911 -29.108590 -53.977769 19.799271 0.000000 0.000000 0.000000 8.279299 16.798114 6.115942 60.125419 51.741773 19.898516 -173.179376 48.270152 -152.610931 0.000000 0.000000 0.000000 
0.020432 0.932150 -0.028833 -1.544625 -12.265703 -0.654418 4.170442 0.089865 0.191864 -5.806989 0.856024 1.345824 8.730150 18.186194 5.760229 0.000000 0.000000 0.000000 -2.121927 0.116178 -0.273625 3.733117 -0.282122 0.416394 -4.520564 -13.284841 7.213904 0.000000 0.000000 0.000000 -6.321525 0.134385 2.376993 7.239399 -1.963688 -17.605265 4.113918 3.011425 28.104359 1.750151 -0.582843 -19.687481 0.000000 0.000000 0.000000 -24.222390 1.594641 -0.834068 -47.807137 -8.181163 -5.243316 -29.034693 -53.416389 19.546457 0.000000 0.000000 0.000000 8.009816 17.002704 6.162258 59.972022 52.421503 20.232316 -172.247918 48.279379 -150.697692 0.000000 0.000000 0.000000 
0.020794 0.931898 -0.028971 -1.589069 -12.469286 -0.715763 4.266952 0.095384 0.198115 -5.956815 0.888126 1.496662 8.820479 18.359053 5.679676 0.000000 0.000000 0.000000 -2.164100 0.113835 -0.205617 3.834693 -0.288406 0.371826 -4.434757 -13.106648 7.143569 0.000000 0.000000 0.000000 -6.355246 0.135208 2.352622 7.238973 -1.981475 -17.462123 4.190577 3.123743 28.022166 1.780707 -0.620815 -19.402479 0.000000 0.000000 0.000000 -24.051235 1.810185 -0.960777 -47.840611 -8.009682 -5.295094 -29.086665 -52.903355 19.362228 0.000000 0.000000 0.000000 7.673329 17.130608 6.187149 60.028142 53.044804 20.662422 -171.587558 48.392840 -149.372929 0.000000 0.000000 0.000000 
0.021150 0.931798 -0.029105 -1.565211 -12.460262 -0.790890 4.283956 0.100310 0.258845 -6.067975 0.906456 1.500548 8.805451 18.336124 5.638240 0.000000 0.000000 0.000000 -2.274880 0.117075 -0.182507 3.950339 -0.296574 0.446678 -4.443990 -13.113969 7.112616 0.000000 0.000000 0.000000 -6.464670 0.141516 2.511803 7.182027 -1.963065 -17.493288 4.253687 3.158390 28.100193 1.758096 -0.600007 -19.414060 0.000000 0.000000 0.000000 -24.053023 1.873671 -1.008853 -47.808179 -7.815088 -5.370855 -29.360301 -52.244652 19.220057 0.000000 0.000000 0.000000 7.639292 17.261498 6.242995 59.900129 53.542908 20.922199 -171.352876 48.467879 -148.870596 0.000000 0.000000 0.000000 
0.021529 0.931702 -0.029233 -1.504402 -12.402191 -0.901564 4.139295 0.097301 0.251445 -5.961299 0.893561 1.670544 8.793631 18.320948 5.568869 0.000000 0.000000 0.000000 -2.397314 0.123902 -0.206974 4.017901 -0.300453 0.673391 -4.488647 -13.177061 7.044159 0.000000 0.000000 0.000000 -6.521981 0.146961 2.782357 7.045573 -1.929014 -17.459813 4.241329 3.307703 28.026483 1.752687 -0.564796 -19.437981 0.000000 0.000000 0.000000 -24.034452 2.019354 -1.159263 -47.916240 -7.455171 -5.489783 -29.699814 -51.877077 19.210912 0.000000 0.000000 0.000000 7.540538 17.182254 6.225489 59.735607 53.761108 21.020311 -171.119182 48.357787 -148.182394 0.000000 0.000000 0.000000 
0.021928 0.931571 -0.029389 -1.348960 -12.289509 -1.079746 3.907144 0.101106 0.376669 -5.875716 0.878384 1.682198 8.743071 18.235967 5.520358 0.000000 0.000000 0.000000 -2.661423 0.135602 -0.216948 4.161155 -0.310668 0.976629 -4.567398 -13.289951 6.932600 0.000000 0.000000 0.000000 -6.650223 0.156531 3.133228 6.910647 -1.883299 -17.543366 4.256185 3.349825 27.999875 1.692359 -0.505321 -19.489510 0.000000 0.000000 0.000000 -24.266752 2.225249 -1.332167 -47.965301 -7.065669 -5.635186 -30.160594 -51.600645 19.320446 0.000000 0.000000 0.000000 7.335162 17.132691 6.203318 59.588798 53.820630 21.001204 -171.004861 48.547899 -148.013713 0.000000 0.000000 0.000000 
0.022318 0.931534 -0.029648 -1.258460 -12.233143 -1.291781 3.771602 0.115279 0.606032 -5.838115 0.869455 1.602742 8.703325 18.169523 5.506963 0.000000 0.000000 0.000000 -2.917230 0.138718 -0.100847 4.410949 -0.330771 1.121452 -4.591959 -13.324510 6.904571 0.000000 0.000000 0.000000 -6.817690 0.169028 3.495264 6.876703 -1.871956 -17.583637 4.230516 3.463506 27.923769 1.708794 -0.477326 -19.705429 0.000000 0.000000 0.000000 -24.380496 2.491519 -1.555505 -48.187024 -6.494253 -5.846524 -30.984117 -51.696732 19.786202 0.000000 0.000000 0.000000 7.073594 17.020689 6.154899 59.229988 53.921461 20.914080 -170.520999 48.431081 -146.841525 0.000000 0.000000 0.000000 
0.022635 0.931555 -0.029971 -1.080782 -12.063918 -1.364042 3.481709 0.115981 0.703754 -5.676617 0.835783 1.415463 8.627281 18.029270 5.548558 0.000000 0.000000 0.000000 -3.141038 0.155357 -0.216857 4.457949 -0.334907 1.390092 -4.689293 -13.493381 6.856084 0.000000 0.000000 0.000000 -6.915221 0.175007 3.607782 6.809733 -1.857116 -17.524508 4.114550 3.488422 27.877067 1.825628 -0.535795 -19.723074 0.000000 0.000000 0.000000 -24.686452 2.463968 -1.594628 -48.346340 -6.031545 -6.030507 -31.665517 -51.751556 20.157035 0.000000 0.000000 0.000000 7.006803 17.156239 6.218835 58.245407 53.903888 20.438810 -170.203442 48.132480 -145.923469 0.000000 0.000000 0.000000 
0.022878 0.931618 -0.030319 -0.939373 -12.259720 -1.511727 3.218727 0.128892 0.899441 -5.525617 0.811892 1.288232 8.709622 18.177727 5.677392 0.000000 0.000000 0.000000 -3.444159 0.171764 -0.242341 4.689732 -0.351023 1.580189 -4.610535 -13.332806 6.801726 0.000000 0.000000 0.000000 -6.904697 0.176925 3.762842 6.635017 -1.814761 -17.502684 4.009815 3.797980 27.918610 1.829642 -0.515893 -19.598701 0.000000 0.000000 0.000000 -24.859149 2.475536 -1.664846 -48.573210 -5.805122 -6.130120 -32.378101 -51.946302 20.616812 0.000000 0.000000 0.000000 6.649257 17.179632 6.219289 57.526302 54.169582 20.270553 -169.224896 47.684008 -143.374953 0.000000 0.000000 0.000000 
0.023040 0.931674 -0.030647 -0.802334 -12.247072 -1.686446 2.958521 0.137367 1.044718 -5.335056 0.781223 1.270337 8.706197 18.171886 5.733005 0.000000 0.000000 0.000000 -3.657081 0.180105 -0.230604 4.796815 -0.359403 1.808883 -4.626719 -13.348750 6.754175 0.000000 0.000000 0.000000 -6.872178 0.176349 3.952066 6.478799 -1.782671 -17.394938 3.823887 3.865760 27.847304 1.834713 -0.542490 -19.072017 0.000000 0.000000 0.000000 -25.132239 2.337627 -1.613226 -48.689802 -5.515218 -6.253160 -33.178377 -52.444825 21.282016 0.000000 0.000000 0.000000 6.438616 17.325987 6.266244 56.513382 54.749031 20.136080 -168.118536 47.199029 -140.613844 0.000000 0.000000 0.000000 
0.023176 0.931569 -0.030954 -0.663580 -12.326820 -1.940805 2.805060 0.154848 1.262037 -5.341422 0.784787 1.302521 8.728879 18.218937 5.746537 0.000000 0.000000 0.000000 -3.805576 0.181203 -0.140638 4.778262 -0.355961 2.041146 -4.616472 -13.289229 6.616521 0.000000 0.000000 0.000000 -6.883624 0.178318 4.175590 6.263089 -1.732136 -17.322928 3.782497 3.936064 27.934043 1.829806 -0.542678 -19.014987 0.000000 0.000000 0.000000 -25.412336 2.227018 -1.555745 -48.935151 -5.354344 -6.353989 -34.405487 -52.941180 22.221696 0.000000 0.000000 0.000000 6.233478 17.254183 6.221206 55.447598 55.406100 19.976599 -166.867058 46.652683 -137.482394 0.000000 0.000000 0.000000 
0.023307 0.931431 -0.031245 -0.607989 -12.623403 -2.114472 2.645531 0.154995 1.242078 -5.206678 0.776454 1.674925 8.888146 18.514911 5.744610 0.000000 0.000000 0.000000 -3.977585 0.189468 -0.115549 4.944616 -0.366179 2.213452 -4.502471 -13.041169 6.498343 0.000000 0.000000 0.000000 -6.777290 0.169205 4.125178 6.210507 -1.733573 -17.216121 3.594583 4.019524 27.986219 2.089476 -0.738789 -18.936970 0.000000 0.000000 0.000000 -25.684490 2.070783 -1.423079 -49.122892 -5.208169 -6.462158 -35.336215 -53.347514 22.998420 0.000000 0.000000 0.000000 5.941192 17.390810 6.237594 54.100008 56.016262 19.611236 -165.037746 45.889803 -132.945975 0.000000 0.000000 0.000000 
0.023475 0.931172 -0.031558 -0.504302 -12.944473 -2.203531 2.429995 0.150022 1.178062 -5.076102 0.766112 1.937147 9.062137 18.837670 5.750640 0.000000 0.000000 0.000000 -4.173777 0.198507 -0.057815 5.057895 -0.372150 2.127868 -4.379145 -12.768749 6.366021 0.000000 0.000000 0.000000 -6.782931 0.163177 3.863325 6.015337 -1.707372 -16.941093 3.718923 3.899077 28.123160 2.002736 -0.730696 -18.996261 0.000000 0.000000 0.000000 -25.573687 1.935351 -1.216905 -49.633686 -5.175014 -6.557269 -35.829396 -54.110490 23.774048 0.000000 0.000000 0.000000 5.591791 17.516250 6.225143 53.451661 56.733179 19.602315 -163.957325 45.478414 -130.466284 0.000000 0.000000 0.000000 
